<?xml version="1.0" encoding="UTF-8" standalone="no"?>
<svg
   xmlns:dc="http://purl.org/dc/elements/1.1/"
   xmlns:cc="http://creativecommons.org/ns#"
   xmlns:rdf="http://www.w3.org/1999/02/22-rdf-syntax-ns#"
   xmlns:svg="http://www.w3.org/2000/svg"
   xmlns="http://www.w3.org/2000/svg"
   xmlns:sodipodi="http://sodipodi.sourceforge.net/DTD/sodipodi-0.dtd"
   xmlns:inkscape="http://www.inkscape.org/namespaces/inkscape"
   width="14"
   height="14"
   version="1.1"
   style="enable-background:new"
   id="svg8"
   sodipodi:docname="titlebutton-restore-active.svg"
   inkscape:version="1.0.1 (3bc2e813f5, 2020-09-07)">
  <metadata
     id="metadata14">
    <rdf:RDF>
      <cc:Work
         rdf:about="">
        <dc:format>image/svg+xml</dc:format>
        <dc:type
           rdf:resource="http://purl.org/dc/dcmitype/StillImage" />
        <dc:title></dc:title>
      </cc:Work>
    </rdf:RDF>
  </metadata>
  <defs
     id="defs12" />
  <sodipodi:namedview
     pagecolor="#ffffff"
     bordercolor="#666666"
     borderopacity="1"
     objecttolerance="10"
     gridtolerance="10"
     guidetolerance="10"
     inkscape:pageopacity="0"
     inkscape:pageshadow="2"
     inkscape:window-width="1515"
     inkscape:window-height="752"
     id="namedview10"
     showgrid="false"
     inkscape:zoom="51.812501"
     inkscape:cx="7"
     inkscape:cy="6.9999999"
     inkscape:window-x="110"
     inkscape:window-y="59"
     inkscape:window-maximized="0"
     inkscape:current-layer="svg8"
     inkscape:document-rotation="0" />
  <path
     style="fill:#767676;fill-opacity:1;fill-rule:evenodd;stroke:none;stroke-width:1"
     d="M 7.0000614,14 C 10.86599,14 14,10.866 14,7 14,3.1340001 10.86599,1.75e-7 7.0000614,1.75e-7 3.1340188,1.75e-7 0,3.1340001 0,7 c 0,3.866 3.1340188,7 7.0000614,7"
     id="path2"
     inkscape:connector-curvature="0" />
  <path
     style="fill:#8d8d8d;fill-opacity:1;fill-rule:evenodd;stroke:none;stroke-width:0.972239"
     d="m 7.0000614,13.5 c 3.5897806,0 6.4999326,-2.750936 6.4999326,-6.1441649 0,-3.3933228 -2.910152,-6.1440704 -6.4999326,-6.1440704 -3.5899135,0 -6.50006746,2.7507476 -6.50006746,6.1440704 C 0.49999394,10.749064 3.4101479,13.5 7.0000614,13.5"
     id="path4"
     inkscape:connector-curvature="0" />
  <path
     style="opacity:0.5;fill:#000000;fill-opacity:1;stroke:none;stroke-width:2.04166;stroke-linecap:round;stroke-linejoin:round;stroke-miterlimit:4;stroke-dasharray:none;stroke-opacity:1;enable-background:new"
     d="M 5.3941475,3.9269998 10.075625,8.6084391 V 4.9478332 c 0,-0.4241563 -0.5966774,-1.0208334 -1.0208336,-1.0208334 z M 3.9506254,5.3705602 v 3.6606053 c 0,0.4241563 0.5966767,1.0208345 1.020833,1.0208345 h 3.6606448 z"
     id="path6"
     inkscape:connector-curvature="0" />
</svg>
